<svg width="660" height="440" viewBox="0 0 660 440" fill="none" xmlns="http://www.w3.org/2000/svg">
<rect width="660" height="440" fill="white"/>
<path d="M423.138 193.629L427.587 187.123L430.924 193.629C431.814 198.834 434.261 200.858 435.373 201.219L447.608 210.978L440.934 196.882L456.506 206.641C454.745 209.216 483.328 236.773 498.297 250.659C498.479 250.82 498.64 250.971 498.771 251.099C498.615 250.954 498.457 250.807 498.297 250.659C497.452 249.91 496.167 248.93 495.434 248.93C494.544 248.93 485.424 244.593 480.975 242.424L456.506 226.159L466.516 246.761C463.846 245.894 458.73 243.508 456.506 242.424L443.159 230.496L424.251 210.978C426.92 208.376 425.363 203.388 424.251 201.219C421.581 196.882 422.397 194.352 423.138 193.629Z" fill="#5F9FC7"/>
<path d="M427.587 187.123L423.138 193.629C422.397 194.352 421.581 196.882 424.251 201.219C425.363 203.388 426.92 208.376 424.251 210.978L443.159 230.496L456.506 242.424C458.73 243.508 463.846 245.894 466.516 246.761L456.506 226.159L480.975 242.424C485.424 244.593 494.544 248.93 495.434 248.93C496.324 248.93 498.029 250.376 498.771 251.099C483.941 237.364 454.726 209.243 456.506 206.641L440.934 196.882L447.608 210.978L435.373 201.219C434.261 200.858 431.814 198.834 430.924 193.629L427.587 187.123Z" stroke="#5F9FC7"/>
<path d="M224.294 199.505L209.848 218.079L226.358 207.76H233.581L238.741 202.601L242.868 191.25V182.995L230.486 199.505H224.294Z" fill="#5E9EC6" stroke="#5F9FC7"/>
<path d="M174.704 345.714C145.453 297.128 150.677 264.015 156.945 253.531L195.598 228.587L188.285 239.432L203.955 230.756C208.134 229.021 211.268 229.31 212.313 229.672L213.358 228.587L225.894 215.573L223.804 228.587C217.118 237.263 213.358 243.047 212.313 244.855L179.928 275.221L213.358 255.7L226.938 244.855L254.1 223.165L276.038 206.897C276.874 203.426 284.744 196.775 288.574 193.883C292.753 190.412 295.191 185.207 295.887 183.038C295.887 179.567 300.066 176.53 302.155 175.446C301.319 177.181 301.11 180.507 301.11 181.953C301.11 184.484 300.066 191.28 295.887 198.221C291.708 205.162 287.878 207.62 286.485 207.981L278.128 223.165L291.708 225.334L295.887 210.15C302.155 201.474 314.9 183.688 315.736 181.953C316.572 180.218 318.173 177.615 318.87 176.53L328.272 170.023C331.615 164.818 333.147 157.009 333.495 153.756L324.093 160.263C324.093 157.66 328.272 152.671 330.361 150.502L339.763 139.657C338.928 149.201 342.201 156.648 343.942 159.178C338.092 160.914 334.54 171.469 333.495 176.53C330.988 185.207 324.79 190.991 322.004 192.798C316.154 192.798 315.388 197.859 315.736 200.39C308.214 200.39 308.423 208.343 309.468 212.319L307.378 214.488L314.691 238.348L333.495 192.798L342.898 176.53L354.389 190.629C356.896 195.835 369.363 201.474 375.283 203.643L371.104 188.46C377.79 196.269 383.64 199.667 385.729 200.39C389.908 203.86 402.792 222.08 408.712 230.756C412.055 238.565 426.82 249.193 433.784 253.531C427.934 243.12 422.293 230.395 420.204 225.334L449.455 248.108L502.733 291.489C504.405 308.841 492.983 339.207 487.063 352.222H174.704V345.714Z" fill="#5E9FC7" stroke="#5F9FC7"/>
<path fill-rule="evenodd" clip-rule="evenodd" d="M310.313 86.4302C285.294 90.2332 267.639 95.6381 249.199 105.138C197.076 131.991 160.938 181.936 151.794 239.759C149.405 254.858 149.402 280.546 151.785 295.685C154.361 312.043 160.937 332.544 168.294 347.15L172.153 354.285H263.375H354.7H488.61L489.484 352.222C513.653 304.705 517.515 243.771 495.452 193.772C471.4 139.269 421.521 99.2746 364.393 88.6846C353.764 86.7148 318.196 85.2321 310.313 86.4302ZM355.21 96.1502C378.842 99.7531 400.962 107.649 419.702 119.172C454.12 140.334 481.031 174.51 493.918 213.42C496.024 219.782 497.749 225.243 497.749 225.555C497.749 226.394 470.673 203.577 467.712 200.243C466.319 198.674 462.966 195.215 460.262 192.556C454.452 186.844 452.855 185.176 440.315 171.72L430.763 161.472L421.545 170.196C401.763 188.921 401.419 188.957 392.056 173.284C387.08 164.954 384.342 161.791 379.005 158.21C374.906 155.458 370.389 150.902 367.51 146.616C362.896 139.744 345.325 122.314 343.011 122.314C341.661 122.314 327.051 135.285 321.314 141.577C319.134 143.97 314.642 149.562 311.332 154.005C306.921 159.926 303.683 162.863 299.209 165.003C294.687 167.165 291.078 170.467 285.282 177.742C280.58 183.642 276.547 187.561 275.174 187.561C271.506 187.561 261.839 182.3 261.083 179.892C260.069 176.66 244.479 162.813 242.653 163.521C241.797 163.853 236.832 169.258 231.618 175.533C226.405 181.807 220.318 187.906 218.091 189.088C215.865 190.272 210.814 195.642 206.869 201.024C202.838 206.524 197.038 212.661 193.628 215.032C190.291 217.353 181.781 223.325 174.717 228.303C167.655 233.279 161.667 237.141 161.412 236.883C160.708 236.172 166.7 213.596 169.497 206.421C186.518 162.758 221.672 125.628 262.592 108.094C290.5 96.1353 325.502 91.6214 355.21 96.1502ZM348.585 140.956C349.7 144.373 351.884 150.107 353.44 153.695C354.996 157.283 355.778 160.219 355.179 160.219C354.581 160.219 353.749 159.66 353.331 158.976C351.668 156.256 350.484 157.926 351.511 161.547C352.158 163.827 352.124 166.606 351.426 168.463C348.619 175.926 349.826 179.463 358.01 187.771C362.275 192.098 367.769 198.146 370.22 201.211C375.23 207.474 376.94 207.433 374.405 201.113C369.744 189.489 370.386 189.19 380.426 198.305C385.588 202.99 394.878 213.533 401.07 221.733C413.905 238.733 420.308 245.61 427.677 250.314C433.737 254.182 435.058 253.694 431.667 248.841C428.118 243.762 420.123 227.324 421.222 227.368C422.375 227.414 443.862 244.222 467.32 263.424C476.957 271.315 488.47 280.574 492.904 284.003L500.965 290.235L499.403 299.582C497.632 310.185 492.981 325.781 488.61 335.774L485.654 342.534L477.26 343.333C468.973 344.122 228.867 344.013 193.993 343.205L176.002 342.787L172.153 334.084C166.469 321.231 162.434 305.941 160.255 289.009C158.263 273.531 158.391 249.214 160.473 247.37C171.769 237.369 181.701 229.527 189.19 224.692C194.292 221.4 199.6 217.908 200.988 216.932C202.374 215.957 206.372 210.437 209.872 204.667C214.867 196.432 217.241 193.718 220.921 192.04C223.817 190.719 228.821 186.062 234.022 179.847L242.438 169.79L244.751 174.6C246.024 177.244 247.606 179.956 248.268 180.626C248.931 181.296 249.473 184.268 249.473 187.229C249.473 190.52 250.676 195.017 252.567 198.787C256.007 205.651 255.642 206.102 249.641 202.403C247.369 201.002 245.266 200.101 244.97 200.4C244.672 200.701 243.824 204.642 243.084 209.16C241.753 217.283 241.651 217.439 233.877 223.508C229.554 226.883 225.563 229.823 225.009 230.041C224.455 230.259 222.312 233.234 220.246 236.652C217.878 240.573 210.256 248.369 199.592 257.779C190.297 265.982 182.48 273.338 182.22 274.126C181.29 276.946 214.767 255.81 231.651 242.917C256.284 224.106 256.847 223.524 256.847 216.874C256.847 209.996 259.172 207.446 265.439 207.446C269.583 207.446 270.514 206.872 272.976 202.785C274.519 200.223 278.435 195.049 281.675 191.289C284.916 187.53 289.367 181.697 291.566 178.327C294.737 173.469 296.744 171.796 301.264 170.249C305.207 168.899 308.379 166.574 311.555 162.705C314.08 159.629 322.008 150.576 329.172 142.588L342.198 128.062L344.378 131.402C345.577 133.239 347.469 137.538 348.585 140.956ZM435.412 177.518C437.919 183.144 441.989 189.665 444.911 192.742C447.724 195.703 451.445 200.362 453.181 203.096C454.918 205.83 464.134 216.068 473.663 225.848C483.193 235.628 491.265 243.941 491.603 244.322C493.66 246.641 472.894 234.387 464.648 228.414C459.194 224.464 454.731 221.695 454.731 222.261C454.731 222.828 456.653 227.556 459.002 232.768C461.351 237.98 462.816 242.244 462.259 242.244C460.514 242.244 451.894 235.328 446.179 229.342C443.165 226.185 439.897 223.602 438.916 223.602C435.202 223.602 423.86 213.359 418.551 205.211C415.552 200.609 411.665 195.481 409.912 193.816L406.724 190.787L418.105 179.232C424.365 172.876 429.832 167.676 430.256 167.676C430.679 167.676 432.999 172.104 435.412 177.518ZM320.76 203.717C319.408 205.085 317.455 206.203 316.42 206.203C313.854 206.203 312.62 209.926 314.742 211.261C316.122 212.13 316.166 212.818 314.966 214.776C313.799 216.681 313.799 217.32 314.962 217.713C317.048 218.416 312.406 220.761 307.861 221.301C305.578 221.572 304.177 221.171 304.174 220.247C304.17 219.426 303.614 218.228 302.938 217.583C299.444 214.251 265.39 209.817 261.876 212.237C260.406 213.25 260.371 215.831 261.653 229.39C262.482 238.169 264.228 250.385 265.532 256.537C267.088 263.873 267.703 265.584 267.319 261.508C266.858 256.611 267.021 255.786 268.08 257.618C268.82 258.895 269.153 262.384 268.82 265.369C268.223 270.722 268.277 270.815 272.671 272.049C275.122 272.738 279.555 273.303 282.522 273.307L287.915 273.315L287.282 284.547L286.649 295.779L290.184 297.629C292.13 298.645 293.72 299.796 293.72 300.186C293.72 300.577 291.605 303.326 289.02 306.295C286.435 309.265 283.637 313.999 282.802 316.816C281.968 319.634 279.294 324.166 276.861 326.889L272.437 331.841L277.183 336.755C281.338 341.057 282.623 341.668 287.517 341.663L293.106 341.656L289.841 338.866C288.047 337.331 285.929 334.772 285.135 333.178C283.393 329.677 285.735 325.731 297.286 312.714C301.408 308.067 304.782 303.454 304.782 302.461C304.782 301.468 305.566 300.656 306.525 300.656C307.483 300.656 309.044 300.355 309.993 299.986C312.568 298.988 314.289 304.24 313.266 309.977C312.778 312.711 312.95 317.71 313.649 321.084C314.345 324.458 314.58 330.471 314.17 334.444L313.424 341.669H324.983H336.543L337.235 338.251C337.615 336.372 339.901 319.225 342.315 300.148C345.063 278.44 347.37 264.503 348.482 262.899C350.591 259.852 350.798 256.304 348.904 255.665C347.945 255.342 347.887 252.957 348.706 247.484C349.341 243.235 349.457 239.759 348.963 239.759C347.586 239.759 346.571 243.23 346.571 247.939C346.571 250.6 345.605 253.164 343.985 254.802C341.031 257.788 338.243 257.551 328.958 253.523C323.17 251.011 323.047 250.847 324.02 246.906C324.568 244.684 325.027 239.231 325.04 234.788C325.062 226.759 325.083 226.712 328.379 227.057C330.773 227.308 332.13 226.616 333.259 224.572C336.038 219.533 337.903 213.098 336.884 212.068C336.339 211.516 332.14 211.67 327.556 212.411C322.97 213.152 318.875 213.41 318.454 212.986C317.097 211.614 322.178 208.812 327.483 208.008C334.901 206.883 336.768 205.41 333.738 203.072C330.31 200.428 323.688 200.757 320.76 203.717ZM265.671 227.333C265.671 227.333 265.661 238.521 265.167 238.518C263.997 238.515 263.298 234.843 262.504 224.534C261.99 217.884 263.567 216.145 263.567 216.145L265.671 227.333ZM271.336 228.276C271.617 237.441 271.342 239.759 269.974 239.759C268.779 239.759 268.02 237.445 267.469 232.119C266.116 219.026 268.831 216.379 268.831 216.379C268.831 216.379 271.035 218.498 271.336 228.276ZM276.837 227.641C276.276 239.182 275.902 241.002 274.093 241.002C273.311 241.002 272.826 236.477 272.826 229.195C272.826 218.571 273.052 217.388 275.081 217.388C277.126 217.388 277.29 218.342 276.837 227.641ZM283.44 222.67C283.039 225.576 282.352 230.889 281.912 234.477C281.343 239.117 280.575 241.002 279.253 241.002C277.708 241.002 277.526 239.707 278.182 233.362C278.616 229.161 278.971 223.848 278.971 221.555C278.971 218.143 279.441 217.388 281.569 217.388C283.919 217.388 284.098 217.89 283.44 222.67ZM289.6 222.373C289.192 224.432 288.198 229.745 287.39 234.18C286.389 239.678 285.357 242.244 284.153 242.244C282.837 242.244 282.561 241.213 283.074 238.205C283.454 235.984 284.109 231.37 284.532 227.952C285.57 219.551 285.942 218.631 288.305 218.631C289.912 218.631 290.185 219.417 289.6 222.373ZM296.178 221.278C296.178 225.627 290.668 242.244 289.225 242.244H289.182C288.613 242.245 288.208 242.245 287.968 242.046C287.375 241.553 287.794 239.842 289.248 233.898L289.291 233.724C290.233 229.866 291.35 225.171 291.772 223.292C292.503 220.028 296.178 218.348 296.178 221.278ZM301.095 222.666C301.095 225.736 294.722 243.487 293.619 243.487C292.999 243.487 292.491 243.214 292.491 242.879C292.491 241.797 297.672 223.011 298.235 222.049C299.115 220.55 301.095 220.977 301.095 222.666ZM316.44 224.326C316.44 224.326 322.611 233.572 321.657 236.352C321.657 236.352 320.738 236.135 320.26 233.985C318.867 227.716 315.705 225.665 308.504 226.365C302.185 226.979 300.641 225.959 304.475 223.702C307.673 221.819 316.44 224.326 316.44 224.326ZM253.16 244.837C250.794 246.891 243.754 252.321 237.514 256.905C226.591 264.927 223.722 267.953 228.271 266.653C237.659 263.971 258.963 256.995 260.082 256.236C261.099 255.547 261.127 253.375 260.183 248.148C259.475 244.218 258.572 241.024 258.179 241.053C257.784 241.08 255.526 242.784 253.16 244.837ZM266.697 244.419C266.706 245.616 267.048 247.852 267.455 249.391C267.866 250.942 267.643 252.187 266.953 252.187C266.268 252.187 265.498 249.95 265.241 247.216C264.983 244.481 265.202 242.244 265.726 242.244C266.251 242.244 266.688 243.222 266.697 244.419ZM271.597 248.458C271.597 251.193 271.043 253.43 270.367 253.43C269.691 253.43 269.138 252.077 269.138 250.425C269.138 248.772 268.803 246.535 268.392 245.453C267.903 244.163 268.325 243.487 269.621 243.487C271.106 243.487 271.597 244.721 271.597 248.458ZM275.284 249.153C275.284 252.614 274.806 254.521 274.055 254.051C273.379 253.628 272.826 251.079 272.826 248.385C272.826 245.691 273.379 243.487 274.055 243.487C274.731 243.487 275.284 246.037 275.284 249.153ZM280.2 249.006C280.2 252.928 278.446 255.8 276.966 254.302C275.986 253.31 277.905 244.73 279.107 244.73C279.708 244.73 280.2 246.654 280.2 249.006ZM284.265 249.391C283.262 256.09 281.429 257.389 281.429 251.4C281.429 248.642 281.798 246.014 282.249 245.559C284.169 243.616 284.916 245.037 284.265 249.391ZM288.216 250.633C287.288 255.654 286.738 256.727 285.652 255.628C284.547 254.511 286.489 245.973 287.849 245.973C288.602 245.973 288.745 247.775 288.216 250.633ZM293.232 247.953C292.819 249.041 292.147 251.278 291.738 252.924C291.044 255.72 288.804 257.197 288.804 254.858C288.804 252.312 291.615 245.973 292.743 245.973C293.425 245.973 293.645 246.864 293.232 247.953ZM310.454 249.47C309.381 251.225 297.028 259.379 293.23 260.839C289.84 262.142 288.855 260.729 291.569 258.456C300.998 250.559 313.393 244.662 310.454 249.47ZM271.236 263.668C270.943 265.214 270.691 264.242 270.677 261.508C270.664 258.774 270.905 257.509 271.212 258.697C271.519 259.885 271.53 262.122 271.236 263.668ZM274.937 265.53C274.654 267.419 274.416 266.168 274.406 262.751C274.398 259.333 274.629 257.787 274.92 259.316C275.211 260.844 275.219 263.64 274.937 265.53ZM278.274 263.061C277.123 271.087 276.513 271.266 276.513 263.58C276.513 259.88 277.066 257.158 277.817 257.158C278.672 257.158 278.83 259.189 278.274 263.061ZM281.231 263.647C279.828 269.961 278.286 271.962 279.409 266.013C279.844 263.706 280.2 261.049 280.2 260.11C280.2 259.17 280.694 258.401 281.299 258.401C281.933 258.401 281.905 260.617 281.231 263.647ZM284.378 264.205C282.266 271.3 280.831 273.041 281.992 267.1C283.338 260.212 283.981 258.401 285.08 258.401C285.644 258.401 285.328 261.012 284.378 264.205ZM287.549 264.221C286.724 266.83 285.553 269.505 284.947 270.168C284.34 270.829 284.678 268.592 285.695 265.197C286.714 261.8 287.554 258.79 287.561 258.504C287.569 258.219 287.907 258.323 288.312 258.731C288.717 259.142 288.374 261.612 287.549 264.221ZM329.978 261.62C339.268 262.519 344.113 264.343 344.113 266.94C344.114 270.089 335.328 338.507 334.86 338.997C333.962 339.935 325.858 336.476 323.942 334.335C322.102 332.278 322.046 330.208 323.346 312.321L324.779 292.578L320.311 280.958C315.872 269.412 315.126 265.467 316.628 261.509C317.159 260.11 318.249 259.68 320.008 260.174C321.436 260.576 325.922 261.227 329.978 261.62Z" fill="#1C5493"/>
</svg>
